/* XPM */
char * xIrc_xpm[] = {
"64 56 4 1",
" 	s None c None",
"X	c #000000000000",
"o	c #Bfff00000000",
".	c #00000000BFFF",
"                                                                ",
"                                                                ",
"                                                                ",
"                                                                ",
"                                                                ",
"                                                                ",
"                                                                ",
"                                                                ",
"                                                                ",
"................................................................",
"................................................................",
"................................................................",
"................................................................",
"................................................................",
"................................................................",
"                        ......                                  ",
"XXXXXXX               X ...... oooooooooooo            oooooo  o",
" XXXXXXX             X  ......    ooo     oo         oooo  ooooo",
"  XXXXXXX           X   ......    ooo     ooo       oooo     ooo",
"   XXXXXXX         X    ......    ooo     ooo      oooo       oo",
"    XXXXXXX       X     ......    ooo     ooo      ooo         o",
"     XXXXXXX     X      ......    ooo     ooo     oooo         o",
"      XXXXXXX   X       ......    ooo    ooo      ooo           ",
"       XXXXX   X        ......    ooo   ooo       ooo           ",
"        XXX   X         ......    ooooooo         ooo           ",
"         X   XXX        ......    ooo oooo        ooo           ",
"        X   XXXXX       ......    ooo  oooo       ooo           ",
"       X   XXXXXXX      ......    ooo   ooo       oooo          ",
"      X     XXXXXXX     ......    ooo   oooo      oooo          ",
"     X       XXXXXXX    ......    ooo    oooo      oooo        o",
"    X         XXXXXXX   ......    ooo     ooo      oooo      ooo",
"   X           XXXXXXX  ......    ooo     oooo o    ooooo  oooo ",
"  X             XXXXXXX ...... oooooooo    ooooo      ooooooo   ",
"                        ......                                  ",
"................................................................",
"................................................................",
"................................................................",
"................................................................",
"................................................................",
"................................................................",
"                                                                ",
"                                                                ",
"                                                                ",
"                                                                ",
"                                                                ",
"                                                                ",
"                                                                ",
"                                                                ",
"                                                                ",
"                                                                ",
"                                                                ",
"                                                                ",
"                                                                ",
"                                                                ",
"                                                                ",
"                                                                "};
